<?xml version="1.0" encoding="UTF-8"?>
<svg width="288" height="288" viewBox="0 0 288 288" xmlns="http://www.w3.org/2000/svg">
  <g transform="translate(0,136)">
    <path fill="#d4d3d3" d="M 96,56 L 96,16 L 128,0 L 128,80 L 64,112 L 64,72 Z M 224,72 L 256,56 L 256,16 L 288,0 L 288,80 L 224,112 Z M 32,16 L 64,0 L 64,40 L 32,56 Z M 192,16 L 224,0 L 224,40 L 192,56 Z M 144,8 L 160,0 L 160,40 L 144,48 Z M 112,-48 L 144,-64 L 144,-24 L 112,-8 Z M 176,-48 L 208,-64 L 208,-24 L 176,-8 Z"/>
    <path fill="#56b09e" d="M 32,56 L 64,40 L 96,56 L 64,72 Z M 192,56 L 224,40 L 256,56 L 224,72 Z M 0,0 L 64,-32 L 112,-8 L 144,-24 L 176,-8 L 224,-32 L 288,0 L 256,16 L 224,0 L 192,16 L 160,0 L 144,8 L 128,0 L 96,16 L 64,0 L 32,16 Z M 80,-64 L 144,-96 L 208,-64 L 176,-48 L 144,-64 L 112,-48 Z"/>
    <path fill="#111213" d="M 0,80 L 0,0 L 32,16 L 32,56 L 64,72 L 64,112 Z M 160,80 L 160,0 L 192,16 L 192,56 L 224,72 L 224,112 Z M 64,40 L 64,0 L 96,16 L 96,56 Z M 224,40 L 224,0 L 256,16 L 256,56 Z M 128,40 L 128,0 L 144,8 L 144,48 Z M 80,-24 L 80,-64 L 112,-48 L 112,-8 Z M 144,-24 L 144,-64 L 176,-48 L 176,-8 Z"/>
  </g>
</svg>
